<?xml version="1.0" encoding="utf-8"?>
<!-- Generator: Adobe Illustrator 18.0.0, SVG Export Plug-In . SVG Version: 6.00 Build 0)  -->
<!DOCTYPE svg PUBLIC "-//W3C//DTD SVG 1.1//EN" "http://www.w3.org/Graphics/SVG/1.1/DTD/svg11.dtd">
<svg version="1.1" xmlns="http://www.w3.org/2000/svg" xmlns:xlink="http://www.w3.org/1999/xlink" x="0px" y="0px"
	 viewBox="-272 -144 1024 768" enable-background="new -272 -144 1024 768" xml:space="preserve">
<g id="Layer_2">
	<rect x="-271.5" y="-143.6" opacity="0.32" fill="#170000" width="1023.1" height="767.3"/>
</g>
<g id="Layer_1">
	<g id="cc">
		<g id="cc_ring3">
			<circle fill="none" stroke="#FFFFFF" stroke-miterlimit="10" stroke-dasharray="0.9991,4.9957" cx="240" cy="240" r="340"/>
		</g>
	</g>
	<g id="cs">
		<g id="display_4_">
			<g>
				<path fill="#1A1A1A" d="M437,101v262H44V101H437 M439,99h-2H44.3H42v2v262.2v1.8h2.3H437h2v-1.8V101V99L439,99z"/>
			</g>
			<rect x="42.5" y="343.5" fill="none" stroke="#1A1A1A" stroke-miterlimit="10" width="395" height="20"/>
			<rect x="56" y="115" fill="none" stroke="#1A1A1A" stroke-width="2" stroke-miterlimit="10" width="366" height="214"/>
			<rect x="173" y="389" fill="none" stroke="#1A1A1A" stroke-width="2" stroke-miterlimit="10" width="133" height="4"/>
			<rect x="205.5" y="381.5" fill="none" stroke="#1A1A1A" stroke-miterlimit="10" width="69" height="7"/>
			<rect x="223.5" y="364.5" fill="none" stroke="#1A1A1A" stroke-miterlimit="10" width="33" height="17"/>
		</g>
		<g>
			<rect x="119.5" y="402.5" fill="none" stroke="#1A1A1A" stroke-miterlimit="10" width="15" height="8"/>
			<rect x="119.5" y="408.5" fill="none" stroke="#1A1A1A" stroke-miterlimit="10" width="15" height="2"/>
		</g>
		<g>
			<rect x="119.5" y="413.5" fill="none" stroke="#1A1A1A" stroke-miterlimit="10" width="20" height="8"/>
			<rect x="119.5" y="419.5" fill="none" stroke="#1A1A1A" stroke-miterlimit="10" width="20" height="2"/>
		</g>
		<g>
			<rect x="119.5" y="424.5" fill="none" stroke="#1A1A1A" stroke-miterlimit="10" width="24" height="8"/>
			<rect x="119.5" y="430.5" fill="none" stroke="#1A1A1A" stroke-miterlimit="10" width="24" height="2"/>
		</g>
		<g>
			<rect x="119.5" y="435.5" fill="none" stroke="#1A1A1A" stroke-miterlimit="10" width="28" height="8"/>
			<rect x="119.5" y="441.5" fill="none" stroke="#1A1A1A" stroke-miterlimit="10" width="28" height="2"/>
		</g>
		<g>
			<rect x="119.5" y="446.5" fill="none" stroke="#1A1A1A" stroke-miterlimit="10" width="15" height="8"/>
			<rect x="119.5" y="452.5" fill="none" stroke="#1A1A1A" stroke-miterlimit="10" width="15" height="2"/>
		</g>
		<g>
			<rect x="137.5" y="446.5" fill="none" stroke="#1A1A1A" stroke-miterlimit="10" width="15" height="8"/>
			<rect x="137.5" y="452.5" fill="none" stroke="#1A1A1A" stroke-miterlimit="10" width="15" height="2"/>
		</g>
		<g>
			<rect x="155.5" y="446.5" fill="none" stroke="#1A1A1A" stroke-miterlimit="10" width="15" height="8"/>
			<rect x="155.5" y="452.5" fill="none" stroke="#1A1A1A" stroke-miterlimit="10" width="15" height="2"/>
		</g>
		<g>
			<rect x="173.5" y="446.5" fill="none" stroke="#1A1A1A" stroke-miterlimit="10" width="15" height="8"/>
			<rect x="173.5" y="452.5" fill="none" stroke="#1A1A1A" stroke-miterlimit="10" width="15" height="2"/>
		</g>
		<g>
			<rect x="191.5" y="446.5" fill="none" stroke="#1A1A1A" stroke-miterlimit="10" width="75" height="8"/>
			<rect x="191.5" y="452.5" fill="none" stroke="#1A1A1A" stroke-miterlimit="10" width="75" height="2"/>
		</g>
		<g>
			<rect x="137.5" y="402.5" fill="none" stroke="#1A1A1A" stroke-miterlimit="10" width="15" height="8"/>
			<rect x="137.5" y="408.5" fill="none" stroke="#1A1A1A" stroke-miterlimit="10" width="15" height="2"/>
		</g>
		<g>
			<rect x="142.5" y="413.5" fill="none" stroke="#1A1A1A" stroke-miterlimit="10" width="15" height="8"/>
			<rect x="142.5" y="419.5" fill="none" stroke="#1A1A1A" stroke-miterlimit="10" width="15" height="2"/>
		</g>
		<g>
			<rect x="146.5" y="424.5" fill="none" stroke="#1A1A1A" stroke-miterlimit="10" width="15" height="8"/>
			<rect x="146.5" y="430.5" fill="none" stroke="#1A1A1A" stroke-miterlimit="10" width="15" height="2"/>
		</g>
		<g>
			<rect x="150.5" y="435.5" fill="none" stroke="#1A1A1A" stroke-miterlimit="10" width="15" height="8"/>
			<rect x="150.5" y="441.5" fill="none" stroke="#1A1A1A" stroke-miterlimit="10" width="15" height="2"/>
		</g>
		<g>
			<rect x="168.5" y="435.5" fill="none" stroke="#1A1A1A" stroke-miterlimit="10" width="15" height="8"/>
			<rect x="168.5" y="441.5" fill="none" stroke="#1A1A1A" stroke-miterlimit="10" width="15" height="2"/>
		</g>
		<g>
			<rect x="186.5" y="435.5" fill="none" stroke="#1A1A1A" stroke-miterlimit="10" width="15" height="8"/>
			<rect x="186.5" y="441.5" fill="none" stroke="#1A1A1A" stroke-miterlimit="10" width="15" height="2"/>
		</g>
		<g>
			<rect x="204.5" y="435.5" fill="none" stroke="#1A1A1A" stroke-miterlimit="10" width="15" height="8"/>
			<rect x="204.5" y="441.5" fill="none" stroke="#1A1A1A" stroke-miterlimit="10" width="15" height="2"/>
		</g>
		<g>
			<rect x="222.5" y="435.5" fill="none" stroke="#1A1A1A" stroke-miterlimit="10" width="15" height="8"/>
			<rect x="222.5" y="441.5" fill="none" stroke="#1A1A1A" stroke-miterlimit="10" width="15" height="2"/>
		</g>
		<g>
			<rect x="240.5" y="435.5" fill="none" stroke="#1A1A1A" stroke-miterlimit="10" width="15" height="8"/>
			<rect x="240.5" y="441.5" fill="none" stroke="#1A1A1A" stroke-miterlimit="10" width="15" height="2"/>
		</g>
		<g>
			<rect x="258.5" y="435.5" fill="none" stroke="#1A1A1A" stroke-miterlimit="10" width="15" height="8"/>
			<rect x="258.5" y="441.5" fill="none" stroke="#1A1A1A" stroke-miterlimit="10" width="15" height="2"/>
		</g>
		<g>
			<rect x="277.5" y="435.5" fill="none" stroke="#1A1A1A" stroke-miterlimit="10" width="15" height="8"/>
			<rect x="277.5" y="441.5" fill="none" stroke="#1A1A1A" stroke-miterlimit="10" width="15" height="2"/>
		</g>
		<g>
			<rect x="269.5" y="446.5" fill="none" stroke="#1A1A1A" stroke-miterlimit="10" width="15" height="8"/>
			<rect x="269.5" y="452.5" fill="none" stroke="#1A1A1A" stroke-miterlimit="10" width="15" height="2"/>
		</g>
		<g>
			<rect x="287.5" y="446.5" fill="none" stroke="#1A1A1A" stroke-miterlimit="10" width="15" height="8"/>
			<rect x="287.5" y="452.5" fill="none" stroke="#1A1A1A" stroke-miterlimit="10" width="15" height="2"/>
		</g>
		<g>
			<rect x="305.5" y="446.5" fill="none" stroke="#1A1A1A" stroke-miterlimit="10" width="15" height="8"/>
			<rect x="305.5" y="452.5" fill="none" stroke="#1A1A1A" stroke-miterlimit="10" width="15" height="2"/>
		</g>
		<g>
			<rect x="323.5" y="446.5" fill="none" stroke="#1A1A1A" stroke-miterlimit="10" width="15" height="8"/>
			<rect x="323.5" y="452.5" fill="none" stroke="#1A1A1A" stroke-miterlimit="10" width="15" height="2"/>
		</g>
		<g>
			<rect x="341.5" y="446.5" fill="none" stroke="#1A1A1A" stroke-miterlimit="10" width="19" height="8"/>
			<rect x="341.5" y="452.5" fill="none" stroke="#1A1A1A" stroke-miterlimit="10" width="19" height="2"/>
		</g>
		<g>
			<rect x="296.5" y="435.5" fill="none" stroke="#1A1A1A" stroke-miterlimit="10" width="15" height="8"/>
			<rect x="296.5" y="441.5" fill="none" stroke="#1A1A1A" stroke-miterlimit="10" width="15" height="2"/>
		</g>
		<g>
			<rect x="315.5" y="435.5" fill="none" stroke="#1A1A1A" stroke-miterlimit="10" width="15" height="8"/>
			<rect x="315.5" y="441.5" fill="none" stroke="#1A1A1A" stroke-miterlimit="10" width="15" height="2"/>
		</g>
		<g>
			<rect x="334.5" y="435.5" fill="none" stroke="#1A1A1A" stroke-miterlimit="10" width="26" height="8"/>
			<rect x="334.5" y="441.5" fill="none" stroke="#1A1A1A" stroke-miterlimit="10" width="26" height="2"/>
		</g>
		<g>
			<rect x="164.5" y="424.5" fill="none" stroke="#1A1A1A" stroke-miterlimit="10" width="15" height="8"/>
			<rect x="164.5" y="430.5" fill="none" stroke="#1A1A1A" stroke-miterlimit="10" width="15" height="2"/>
		</g>
		<g>
			<rect x="182.5" y="424.5" fill="none" stroke="#1A1A1A" stroke-miterlimit="10" width="15" height="8"/>
			<rect x="182.5" y="430.5" fill="none" stroke="#1A1A1A" stroke-miterlimit="10" width="15" height="2"/>
		</g>
		<g>
			<rect x="200.5" y="424.5" fill="none" stroke="#1A1A1A" stroke-miterlimit="10" width="15" height="8"/>
			<rect x="200.5" y="430.5" fill="none" stroke="#1A1A1A" stroke-miterlimit="10" width="15" height="2"/>
		</g>
		<g>
			<rect x="218.5" y="424.5" fill="none" stroke="#1A1A1A" stroke-miterlimit="10" width="15" height="8"/>
			<rect x="218.5" y="430.5" fill="none" stroke="#1A1A1A" stroke-miterlimit="10" width="15" height="2"/>
		</g>
		<g>
			<rect x="236.5" y="424.5" fill="none" stroke="#1A1A1A" stroke-miterlimit="10" width="15" height="8"/>
			<rect x="236.5" y="430.5" fill="none" stroke="#1A1A1A" stroke-miterlimit="10" width="15" height="2"/>
		</g>
		<g>
			<rect x="255.5" y="424.5" fill="none" stroke="#1A1A1A" stroke-miterlimit="10" width="15" height="8"/>
			<rect x="255.5" y="430.5" fill="none" stroke="#1A1A1A" stroke-miterlimit="10" width="15" height="2"/>
		</g>
		<g>
			<rect x="274.5" y="424.5" fill="none" stroke="#1A1A1A" stroke-miterlimit="10" width="15" height="8"/>
			<rect x="274.5" y="430.5" fill="none" stroke="#1A1A1A" stroke-miterlimit="10" width="15" height="2"/>
		</g>
		<g>
			<rect x="293.5" y="424.5" fill="none" stroke="#1A1A1A" stroke-miterlimit="10" width="15" height="8"/>
			<rect x="293.5" y="430.5" fill="none" stroke="#1A1A1A" stroke-miterlimit="10" width="15" height="2"/>
		</g>
		<g>
			<rect x="312.5" y="424.5" fill="none" stroke="#1A1A1A" stroke-miterlimit="10" width="15" height="8"/>
			<rect x="312.5" y="430.5" fill="none" stroke="#1A1A1A" stroke-miterlimit="10" width="15" height="2"/>
		</g>
		<g>
			<rect x="331.5" y="424.5" fill="none" stroke="#1A1A1A" stroke-miterlimit="10" width="29" height="8"/>
			<rect x="331.5" y="430.5" fill="none" stroke="#1A1A1A" stroke-miterlimit="10" width="29" height="2"/>
		</g>
		<g>
			<rect x="160.5" y="413.5" fill="none" stroke="#1A1A1A" stroke-miterlimit="10" width="15" height="8"/>
			<rect x="160.5" y="419.5" fill="none" stroke="#1A1A1A" stroke-miterlimit="10" width="15" height="2"/>
		</g>
		<g>
			<rect x="178.5" y="413.5" fill="none" stroke="#1A1A1A" stroke-miterlimit="10" width="15" height="8"/>
			<rect x="178.5" y="419.5" fill="none" stroke="#1A1A1A" stroke-miterlimit="10" width="15" height="2"/>
		</g>
		<g>
			<rect x="196.5" y="413.5" fill="none" stroke="#1A1A1A" stroke-miterlimit="10" width="15" height="8"/>
			<rect x="196.5" y="419.5" fill="none" stroke="#1A1A1A" stroke-miterlimit="10" width="15" height="2"/>
		</g>
		<g>
			<rect x="214.5" y="413.5" fill="none" stroke="#1A1A1A" stroke-miterlimit="10" width="15" height="8"/>
			<rect x="214.5" y="419.5" fill="none" stroke="#1A1A1A" stroke-miterlimit="10" width="15" height="2"/>
		</g>
		<g>
			<rect x="232.5" y="413.5" fill="none" stroke="#1A1A1A" stroke-miterlimit="10" width="15" height="8"/>
			<rect x="232.5" y="419.5" fill="none" stroke="#1A1A1A" stroke-miterlimit="10" width="15" height="2"/>
		</g>
		<g>
			<rect x="250.5" y="413.5" fill="none" stroke="#1A1A1A" stroke-miterlimit="10" width="15" height="8"/>
			<rect x="250.5" y="419.5" fill="none" stroke="#1A1A1A" stroke-miterlimit="10" width="15" height="2"/>
		</g>
		<g>
			<rect x="268.5" y="413.5" fill="none" stroke="#1A1A1A" stroke-miterlimit="10" width="15" height="8"/>
			<rect x="268.5" y="419.5" fill="none" stroke="#1A1A1A" stroke-miterlimit="10" width="15" height="2"/>
		</g>
		<g>
			<rect x="286.5" y="413.5" fill="none" stroke="#1A1A1A" stroke-miterlimit="10" width="15" height="8"/>
			<rect x="286.5" y="419.5" fill="none" stroke="#1A1A1A" stroke-miterlimit="10" width="15" height="2"/>
		</g>
		<g>
			<rect x="304.5" y="413.5" fill="none" stroke="#1A1A1A" stroke-miterlimit="10" width="15" height="8"/>
			<rect x="304.5" y="419.5" fill="none" stroke="#1A1A1A" stroke-miterlimit="10" width="15" height="2"/>
		</g>
		<g>
			<rect x="323.5" y="413.5" fill="none" stroke="#1A1A1A" stroke-miterlimit="10" width="15" height="8"/>
			<rect x="323.5" y="419.5" fill="none" stroke="#1A1A1A" stroke-miterlimit="10" width="15" height="2"/>
		</g>
		<g>
			<rect x="341.5" y="413.5" fill="none" stroke="#1A1A1A" stroke-miterlimit="10" width="19" height="8"/>
			<rect x="341.5" y="419.5" fill="none" stroke="#1A1A1A" stroke-miterlimit="10" width="19" height="2"/>
		</g>
		<g>
			<rect x="155.5" y="402.5" fill="none" stroke="#1A1A1A" stroke-miterlimit="10" width="15" height="8"/>
			<rect x="155.5" y="408.5" fill="none" stroke="#1A1A1A" stroke-miterlimit="10" width="15" height="2"/>
		</g>
		<g>
			<rect x="173.5" y="402.5" fill="none" stroke="#1A1A1A" stroke-miterlimit="10" width="15" height="8"/>
			<rect x="173.5" y="408.5" fill="none" stroke="#1A1A1A" stroke-miterlimit="10" width="15" height="2"/>
		</g>
		<g>
			<rect x="191.5" y="402.5" fill="none" stroke="#1A1A1A" stroke-miterlimit="10" width="15" height="8"/>
			<rect x="191.5" y="408.5" fill="none" stroke="#1A1A1A" stroke-miterlimit="10" width="15" height="2"/>
		</g>
		<g>
			<rect x="209.5" y="402.5" fill="none" stroke="#1A1A1A" stroke-miterlimit="10" width="15" height="8"/>
			<rect x="209.5" y="408.5" fill="none" stroke="#1A1A1A" stroke-miterlimit="10" width="15" height="2"/>
		</g>
		<g>
			<rect x="227.5" y="402.5" fill="none" stroke="#1A1A1A" stroke-miterlimit="10" width="15" height="8"/>
			<rect x="227.5" y="408.5" fill="none" stroke="#1A1A1A" stroke-miterlimit="10" width="15" height="2"/>
		</g>
		<g>
			<rect x="245.5" y="402.5" fill="none" stroke="#1A1A1A" stroke-miterlimit="10" width="15" height="8"/>
			<rect x="245.5" y="408.5" fill="none" stroke="#1A1A1A" stroke-miterlimit="10" width="15" height="2"/>
		</g>
		<g>
			<rect x="263.5" y="402.5" fill="none" stroke="#1A1A1A" stroke-miterlimit="10" width="15" height="8"/>
			<rect x="263.5" y="408.5" fill="none" stroke="#1A1A1A" stroke-miterlimit="10" width="15" height="2"/>
		</g>
		<g>
			<rect x="281.5" y="402.5" fill="none" stroke="#1A1A1A" stroke-miterlimit="10" width="15" height="8"/>
			<rect x="281.5" y="408.5" fill="none" stroke="#1A1A1A" stroke-miterlimit="10" width="15" height="2"/>
		</g>
		<g>
			<rect x="300.5" y="402.5" fill="none" stroke="#1A1A1A" stroke-miterlimit="10" width="15" height="8"/>
			<rect x="300.5" y="408.5" fill="none" stroke="#1A1A1A" stroke-miterlimit="10" width="15" height="2"/>
		</g>
		<g>
			<rect x="318.5" y="402.5" fill="none" stroke="#1A1A1A" stroke-miterlimit="10" width="15" height="8"/>
			<rect x="318.5" y="408.5" fill="none" stroke="#1A1A1A" stroke-miterlimit="10" width="15" height="2"/>
		</g>
		<g>
			<rect x="336.5" y="402.5" fill="none" stroke="#1A1A1A" stroke-miterlimit="10" width="24" height="8"/>
			<rect x="336.5" y="408.5" fill="none" stroke="#1A1A1A" stroke-miterlimit="10" width="24" height="2"/>
		</g>
		<rect x="113" y="399" fill="none" stroke="#1A1A1A" stroke-width="2" stroke-miterlimit="10" width="253" height="61"/>
		<rect x="112.5" y="460.5" fill="none" stroke="#1A1A1A" stroke-miterlimit="10" width="254" height="3"/>
		<rect x="63.5" y="126.5" opacity="0.4" fill="none" stroke="#1A1A1A" stroke-miterlimit="10" width="202" height="111"/>
		<g opacity="0.4">
			<line fill="none" stroke="#000000" stroke-miterlimit="10" x1="105.5" y1="238" x2="105.5" y2="256"/>
			<polyline fill="none" stroke="#000000" stroke-miterlimit="10" points="266,160.5 333.5,160.5 333.5,174 			"/>
			<line fill="none" stroke="#000000" stroke-miterlimit="10" x1="333.5" y1="174" x2="333.5" y2="253"/>
			<line fill="none" stroke="#000000" stroke-miterlimit="10" x1="333.5" y1="306" x2="333.5" y2="253"/>
			<polyline fill="none" stroke="#000000" stroke-miterlimit="10" points="105.5,255 105.5,321.5 333.5,321.5 333.5,306 			"/>
			<polyline fill="none" stroke="#000000" stroke-miterlimit="10" points="73.5,238 73.5,255.5 105,255.5 			"/>
			<polyline fill="none" stroke="#000000" stroke-miterlimit="10" points="266,148.4 357.5,148.5 357.5,174 			"/>
			<polyline fill="none" stroke="#000000" stroke-miterlimit="10" points="334,255.5 357.5,255.5 357.5,174 			"/>
			<polyline fill="none" stroke="#000000" stroke-miterlimit="10" points="358,175.5 395.5,175.5 395.5,307.5 334,307.5 			"/>
			<path opacity="0.4" fill="none" stroke="#000000" stroke-linecap="round" stroke-linejoin="round" d="M74,238.5"/>
		</g>
		<rect x="238.5" y="128.5" opacity="0.4" fill="none" stroke="#1A1A1A" stroke-miterlimit="10" width="7" height="7"/>
		<rect x="247.5" y="128.5" opacity="0.4" fill="none" stroke="#1A1A1A" stroke-miterlimit="10" width="7" height="7"/>
		<rect x="256.5" y="128.5" opacity="0.4" fill="none" stroke="#1A1A1A" stroke-miterlimit="10" width="7" height="7"/>
		<rect x="66.5" y="131.5" opacity="0.4" stroke="#000000" stroke-miterlimit="10" width="8" height="4"/>
		<path opacity="0.4" d="M64,138v99h201v-99H64z M70,146h6v3h-6V146z M70,152h49v3H70V152z M70,158h28v3H70V158z M70,164h67v3H70
			V164z M70,170h102v3H70V170z M70,176h16v3H70V176z M70,182h154v3H70V182z M70,188h67v3H70V188z M70,216h84v3H70V216z M188,225H70
			v-3h118V225z M240,213H70v-3h170V213z"/>
		<path fill="none" stroke="#1A1A1A" stroke-width="2" stroke-miterlimit="10" d="M459.5,428.8c0,15.3-9.5,19.2-22.5,19.2
			s-24.5-3.9-24.5-19.2S421,405,434,405S459.5,413.4,459.5,428.8z"/>
	</g>
</g>
</svg>
