<?xml version="1.0" encoding="utf-8"?>
<!-- Generator: Adobe Illustrator 18.0.0, SVG Export Plug-In . SVG Version: 6.00 Build 0)  -->
<!DOCTYPE svg PUBLIC "-//W3C//DTD SVG 1.1//EN" "http://www.w3.org/Graphics/SVG/1.1/DTD/svg11.dtd">
<svg version="1.1" id="Layer_1" xmlns="http://www.w3.org/2000/svg" xmlns:xlink="http://www.w3.org/1999/xlink" x="0px" y="0px"
	 viewBox="0 0 1024 768" enable-background="new 0 0 1024 768" xml:space="preserve">
<g id="bg">
	<rect width="1024" height="768"/>
</g>
<g id="cs">
	<g id="cs_comp">
		<g id="display_4_">
			<g>
				<path fill="#FFFFFF" d="M698,238v262H305V238H698 M700,236h-2H305.3H303v2v262.2v1.8h2.3H698h2v-1.8V238V236L700,236z"/>
			</g>
			<rect x="303.5" y="480.5" fill="none" stroke="#FFFFFF" stroke-miterlimit="10" width="395" height="20"/>
			<rect x="317" y="252" fill="none" stroke="#1A1A1A" stroke-width="2" stroke-miterlimit="10" width="366" height="214"/>
			<rect x="434" y="526" fill="none" stroke="#1A1A1A" stroke-width="2" stroke-miterlimit="10" width="133" height="4"/>
			<rect x="466.5" y="518.5" fill="none" stroke="#1A1A1A" stroke-miterlimit="10" width="69" height="7"/>
			<rect x="484.5" y="501.5" fill="none" stroke="#1A1A1A" stroke-miterlimit="10" width="33" height="17"/>
		</g>
		<g>
			<rect x="380.5" y="539.5" fill="none" stroke="#1A1A1A" stroke-miterlimit="10" width="15" height="8"/>
			<rect x="380.5" y="545.5" fill="none" stroke="#1A1A1A" stroke-miterlimit="10" width="15" height="2"/>
		</g>
		<g>
			<rect x="380.5" y="550.5" fill="none" stroke="#1A1A1A" stroke-miterlimit="10" width="20" height="8"/>
			<rect x="380.5" y="556.5" fill="none" stroke="#1A1A1A" stroke-miterlimit="10" width="20" height="2"/>
		</g>
		<g>
			<rect x="380.5" y="561.5" fill="none" stroke="#1A1A1A" stroke-miterlimit="10" width="24" height="8"/>
			<rect x="380.5" y="567.5" fill="none" stroke="#1A1A1A" stroke-miterlimit="10" width="24" height="2"/>
		</g>
		<g>
			<rect x="380.5" y="572.5" fill="none" stroke="#1A1A1A" stroke-miterlimit="10" width="28" height="8"/>
			<rect x="380.5" y="578.5" fill="none" stroke="#1A1A1A" stroke-miterlimit="10" width="28" height="2"/>
		</g>
		<g>
			<rect x="380.5" y="583.5" fill="none" stroke="#1A1A1A" stroke-miterlimit="10" width="15" height="8"/>
			<rect x="380.5" y="589.5" fill="none" stroke="#1A1A1A" stroke-miterlimit="10" width="15" height="2"/>
		</g>
		<g>
			<rect x="398.5" y="583.5" fill="none" stroke="#1A1A1A" stroke-miterlimit="10" width="15" height="8"/>
			<rect x="398.5" y="589.5" fill="none" stroke="#1A1A1A" stroke-miterlimit="10" width="15" height="2"/>
		</g>
		<g>
			<rect x="416.5" y="583.5" fill="none" stroke="#1A1A1A" stroke-miterlimit="10" width="15" height="8"/>
			<rect x="416.5" y="589.5" fill="none" stroke="#1A1A1A" stroke-miterlimit="10" width="15" height="2"/>
		</g>
		<g>
			<rect x="434.5" y="583.5" fill="none" stroke="#1A1A1A" stroke-miterlimit="10" width="15" height="8"/>
			<rect x="434.5" y="589.5" fill="none" stroke="#1A1A1A" stroke-miterlimit="10" width="15" height="2"/>
		</g>
		<g>
			<rect x="452.5" y="583.5" fill="none" stroke="#1A1A1A" stroke-miterlimit="10" width="75" height="8"/>
			<rect x="452.5" y="589.5" fill="none" stroke="#1A1A1A" stroke-miterlimit="10" width="75" height="2"/>
		</g>
		<g>
			<rect x="398.5" y="539.5" fill="none" stroke="#1A1A1A" stroke-miterlimit="10" width="15" height="8"/>
			<rect x="398.5" y="545.5" fill="none" stroke="#1A1A1A" stroke-miterlimit="10" width="15" height="2"/>
		</g>
		<g>
			<rect x="403.5" y="550.5" fill="none" stroke="#1A1A1A" stroke-miterlimit="10" width="15" height="8"/>
			<rect x="403.5" y="556.5" fill="none" stroke="#1A1A1A" stroke-miterlimit="10" width="15" height="2"/>
		</g>
		<g>
			<rect x="407.5" y="561.5" fill="none" stroke="#1A1A1A" stroke-miterlimit="10" width="15" height="8"/>
			<rect x="407.5" y="567.5" fill="none" stroke="#1A1A1A" stroke-miterlimit="10" width="15" height="2"/>
		</g>
		<g>
			<rect x="411.5" y="572.5" fill="none" stroke="#1A1A1A" stroke-miterlimit="10" width="15" height="8"/>
			<rect x="411.5" y="578.5" fill="none" stroke="#1A1A1A" stroke-miterlimit="10" width="15" height="2"/>
		</g>
		<g>
			<rect x="429.5" y="572.5" fill="none" stroke="#1A1A1A" stroke-miterlimit="10" width="15" height="8"/>
			<rect x="429.5" y="578.5" fill="none" stroke="#1A1A1A" stroke-miterlimit="10" width="15" height="2"/>
		</g>
		<g>
			<rect x="447.5" y="572.5" fill="none" stroke="#1A1A1A" stroke-miterlimit="10" width="15" height="8"/>
			<rect x="447.5" y="578.5" fill="none" stroke="#1A1A1A" stroke-miterlimit="10" width="15" height="2"/>
		</g>
		<g>
			<rect x="465.5" y="572.5" fill="none" stroke="#1A1A1A" stroke-miterlimit="10" width="15" height="8"/>
			<rect x="465.5" y="578.5" fill="none" stroke="#1A1A1A" stroke-miterlimit="10" width="15" height="2"/>
		</g>
		<g>
			<rect x="483.5" y="572.5" fill="none" stroke="#1A1A1A" stroke-miterlimit="10" width="15" height="8"/>
			<rect x="483.5" y="578.5" fill="none" stroke="#1A1A1A" stroke-miterlimit="10" width="15" height="2"/>
		</g>
		<g>
			<rect x="501.5" y="572.5" fill="none" stroke="#1A1A1A" stroke-miterlimit="10" width="15" height="8"/>
			<rect x="501.5" y="578.5" fill="none" stroke="#1A1A1A" stroke-miterlimit="10" width="15" height="2"/>
		</g>
		<g>
			<rect x="519.5" y="572.5" fill="none" stroke="#1A1A1A" stroke-miterlimit="10" width="15" height="8"/>
			<rect x="519.5" y="578.5" fill="none" stroke="#1A1A1A" stroke-miterlimit="10" width="15" height="2"/>
		</g>
		<g>
			<rect x="538.5" y="572.5" fill="none" stroke="#1A1A1A" stroke-miterlimit="10" width="15" height="8"/>
			<rect x="538.5" y="578.5" fill="none" stroke="#1A1A1A" stroke-miterlimit="10" width="15" height="2"/>
		</g>
		<g>
			<rect x="530.5" y="583.5" fill="none" stroke="#1A1A1A" stroke-miterlimit="10" width="15" height="8"/>
			<rect x="530.5" y="589.5" fill="none" stroke="#1A1A1A" stroke-miterlimit="10" width="15" height="2"/>
		</g>
		<g>
			<rect x="548.5" y="583.5" fill="none" stroke="#1A1A1A" stroke-miterlimit="10" width="15" height="8"/>
			<rect x="548.5" y="589.5" fill="none" stroke="#1A1A1A" stroke-miterlimit="10" width="15" height="2"/>
		</g>
		<g>
			<rect x="566.5" y="583.5" fill="none" stroke="#1A1A1A" stroke-miterlimit="10" width="15" height="8"/>
			<rect x="566.5" y="589.5" fill="none" stroke="#1A1A1A" stroke-miterlimit="10" width="15" height="2"/>
		</g>
		<g>
			<rect x="584.5" y="583.5" fill="none" stroke="#1A1A1A" stroke-miterlimit="10" width="15" height="8"/>
			<rect x="584.5" y="589.5" fill="none" stroke="#1A1A1A" stroke-miterlimit="10" width="15" height="2"/>
		</g>
		<g>
			<rect x="602.5" y="583.5" fill="none" stroke="#1A1A1A" stroke-miterlimit="10" width="19" height="8"/>
			<rect x="602.5" y="589.5" fill="none" stroke="#1A1A1A" stroke-miterlimit="10" width="19" height="2"/>
		</g>
		<g>
			<rect x="557.5" y="572.5" fill="none" stroke="#1A1A1A" stroke-miterlimit="10" width="15" height="8"/>
			<rect x="557.5" y="578.5" fill="none" stroke="#1A1A1A" stroke-miterlimit="10" width="15" height="2"/>
		</g>
		<g>
			<rect x="576.5" y="572.5" fill="none" stroke="#1A1A1A" stroke-miterlimit="10" width="15" height="8"/>
			<rect x="576.5" y="578.5" fill="none" stroke="#1A1A1A" stroke-miterlimit="10" width="15" height="2"/>
		</g>
		<g>
			<rect x="595.5" y="572.5" fill="none" stroke="#1A1A1A" stroke-miterlimit="10" width="26" height="8"/>
			<rect x="595.5" y="578.5" fill="none" stroke="#1A1A1A" stroke-miterlimit="10" width="26" height="2"/>
		</g>
		<g>
			<rect x="425.5" y="561.5" fill="none" stroke="#1A1A1A" stroke-miterlimit="10" width="15" height="8"/>
			<rect x="425.5" y="567.5" fill="none" stroke="#1A1A1A" stroke-miterlimit="10" width="15" height="2"/>
		</g>
		<g>
			<rect x="443.5" y="561.5" fill="none" stroke="#1A1A1A" stroke-miterlimit="10" width="15" height="8"/>
			<rect x="443.5" y="567.5" fill="none" stroke="#1A1A1A" stroke-miterlimit="10" width="15" height="2"/>
		</g>
		<g>
			<rect x="461.5" y="561.5" fill="none" stroke="#1A1A1A" stroke-miterlimit="10" width="15" height="8"/>
			<rect x="461.5" y="567.5" fill="none" stroke="#1A1A1A" stroke-miterlimit="10" width="15" height="2"/>
		</g>
		<g>
			<rect x="479.5" y="561.5" fill="none" stroke="#1A1A1A" stroke-miterlimit="10" width="15" height="8"/>
			<rect x="479.5" y="567.5" fill="none" stroke="#1A1A1A" stroke-miterlimit="10" width="15" height="2"/>
		</g>
		<g>
			<rect x="497.5" y="561.5" fill="none" stroke="#1A1A1A" stroke-miterlimit="10" width="15" height="8"/>
			<rect x="497.5" y="567.5" fill="none" stroke="#1A1A1A" stroke-miterlimit="10" width="15" height="2"/>
		</g>
		<g>
			<rect x="516.5" y="561.5" fill="none" stroke="#1A1A1A" stroke-miterlimit="10" width="15" height="8"/>
			<rect x="516.5" y="567.5" fill="none" stroke="#1A1A1A" stroke-miterlimit="10" width="15" height="2"/>
		</g>
		<g>
			<rect x="535.5" y="561.5" fill="none" stroke="#1A1A1A" stroke-miterlimit="10" width="15" height="8"/>
			<rect x="535.5" y="567.5" fill="none" stroke="#1A1A1A" stroke-miterlimit="10" width="15" height="2"/>
		</g>
		<g>
			<rect x="554.5" y="561.5" fill="none" stroke="#1A1A1A" stroke-miterlimit="10" width="15" height="8"/>
			<rect x="554.5" y="567.5" fill="none" stroke="#1A1A1A" stroke-miterlimit="10" width="15" height="2"/>
		</g>
		<g>
			<rect x="573.5" y="561.5" fill="none" stroke="#1A1A1A" stroke-miterlimit="10" width="15" height="8"/>
			<rect x="573.5" y="567.5" fill="none" stroke="#1A1A1A" stroke-miterlimit="10" width="15" height="2"/>
		</g>
		<g>
			<rect x="592.5" y="561.5" fill="none" stroke="#1A1A1A" stroke-miterlimit="10" width="29" height="8"/>
			<rect x="592.5" y="567.5" fill="none" stroke="#1A1A1A" stroke-miterlimit="10" width="29" height="2"/>
		</g>
		<g>
			<rect x="421.5" y="550.5" fill="none" stroke="#1A1A1A" stroke-miterlimit="10" width="15" height="8"/>
			<rect x="421.5" y="556.5" fill="none" stroke="#1A1A1A" stroke-miterlimit="10" width="15" height="2"/>
		</g>
		<g>
			<rect x="439.5" y="550.5" fill="none" stroke="#1A1A1A" stroke-miterlimit="10" width="15" height="8"/>
			<rect x="439.5" y="556.5" fill="none" stroke="#1A1A1A" stroke-miterlimit="10" width="15" height="2"/>
		</g>
		<g>
			<rect x="457.5" y="550.5" fill="none" stroke="#1A1A1A" stroke-miterlimit="10" width="15" height="8"/>
			<rect x="457.5" y="556.5" fill="none" stroke="#1A1A1A" stroke-miterlimit="10" width="15" height="2"/>
		</g>
		<g>
			<rect x="475.5" y="550.5" fill="none" stroke="#1A1A1A" stroke-miterlimit="10" width="15" height="8"/>
			<rect x="475.5" y="556.5" fill="none" stroke="#1A1A1A" stroke-miterlimit="10" width="15" height="2"/>
		</g>
		<g>
			<rect x="493.5" y="550.5" fill="none" stroke="#1A1A1A" stroke-miterlimit="10" width="15" height="8"/>
			<rect x="493.5" y="556.5" fill="none" stroke="#1A1A1A" stroke-miterlimit="10" width="15" height="2"/>
		</g>
		<g>
			<rect x="511.5" y="550.5" fill="none" stroke="#1A1A1A" stroke-miterlimit="10" width="15" height="8"/>
			<rect x="511.5" y="556.5" fill="none" stroke="#1A1A1A" stroke-miterlimit="10" width="15" height="2"/>
		</g>
		<g>
			<rect x="529.5" y="550.5" fill="none" stroke="#1A1A1A" stroke-miterlimit="10" width="15" height="8"/>
			<rect x="529.5" y="556.5" fill="none" stroke="#1A1A1A" stroke-miterlimit="10" width="15" height="2"/>
		</g>
		<g>
			<rect x="547.5" y="550.5" fill="none" stroke="#1A1A1A" stroke-miterlimit="10" width="15" height="8"/>
			<rect x="547.5" y="556.5" fill="none" stroke="#1A1A1A" stroke-miterlimit="10" width="15" height="2"/>
		</g>
		<g>
			<rect x="565.5" y="550.5" fill="none" stroke="#1A1A1A" stroke-miterlimit="10" width="15" height="8"/>
			<rect x="565.5" y="556.5" fill="none" stroke="#1A1A1A" stroke-miterlimit="10" width="15" height="2"/>
		</g>
		<g>
			<rect x="584.5" y="550.5" fill="none" stroke="#1A1A1A" stroke-miterlimit="10" width="15" height="8"/>
			<rect x="584.5" y="556.5" fill="none" stroke="#1A1A1A" stroke-miterlimit="10" width="15" height="2"/>
		</g>
		<g>
			<rect x="602.5" y="550.5" fill="none" stroke="#1A1A1A" stroke-miterlimit="10" width="19" height="8"/>
			<rect x="602.5" y="556.5" fill="none" stroke="#1A1A1A" stroke-miterlimit="10" width="19" height="2"/>
		</g>
		<g>
			<rect x="416.5" y="539.5" fill="none" stroke="#1A1A1A" stroke-miterlimit="10" width="15" height="8"/>
			<rect x="416.5" y="545.5" fill="none" stroke="#1A1A1A" stroke-miterlimit="10" width="15" height="2"/>
		</g>
		<g>
			<rect x="434.5" y="539.5" fill="none" stroke="#1A1A1A" stroke-miterlimit="10" width="15" height="8"/>
			<rect x="434.5" y="545.5" fill="none" stroke="#1A1A1A" stroke-miterlimit="10" width="15" height="2"/>
		</g>
		<g>
			<rect x="452.5" y="539.5" fill="none" stroke="#1A1A1A" stroke-miterlimit="10" width="15" height="8"/>
			<rect x="452.5" y="545.5" fill="none" stroke="#1A1A1A" stroke-miterlimit="10" width="15" height="2"/>
		</g>
		<g>
			<rect x="470.5" y="539.5" fill="none" stroke="#1A1A1A" stroke-miterlimit="10" width="15" height="8"/>
			<rect x="470.5" y="545.5" fill="none" stroke="#1A1A1A" stroke-miterlimit="10" width="15" height="2"/>
		</g>
		<g>
			<rect x="488.5" y="539.5" fill="none" stroke="#1A1A1A" stroke-miterlimit="10" width="15" height="8"/>
			<rect x="488.5" y="545.5" fill="none" stroke="#1A1A1A" stroke-miterlimit="10" width="15" height="2"/>
		</g>
		<g>
			<rect x="506.5" y="539.5" fill="none" stroke="#1A1A1A" stroke-miterlimit="10" width="15" height="8"/>
			<rect x="506.5" y="545.5" fill="none" stroke="#1A1A1A" stroke-miterlimit="10" width="15" height="2"/>
		</g>
		<g>
			<rect x="524.5" y="539.5" fill="none" stroke="#1A1A1A" stroke-miterlimit="10" width="15" height="8"/>
			<rect x="524.5" y="545.5" fill="none" stroke="#1A1A1A" stroke-miterlimit="10" width="15" height="2"/>
		</g>
		<g>
			<rect x="542.5" y="539.5" fill="none" stroke="#1A1A1A" stroke-miterlimit="10" width="15" height="8"/>
			<rect x="542.5" y="545.5" fill="none" stroke="#1A1A1A" stroke-miterlimit="10" width="15" height="2"/>
		</g>
		<g>
			<rect x="561.5" y="539.5" fill="none" stroke="#1A1A1A" stroke-miterlimit="10" width="15" height="8"/>
			<rect x="561.5" y="545.5" fill="none" stroke="#1A1A1A" stroke-miterlimit="10" width="15" height="2"/>
		</g>
		<g>
			<rect x="579.5" y="539.5" fill="none" stroke="#1A1A1A" stroke-miterlimit="10" width="15" height="8"/>
			<rect x="579.5" y="545.5" fill="none" stroke="#1A1A1A" stroke-miterlimit="10" width="15" height="2"/>
		</g>
		<g>
			<rect x="597.5" y="539.5" fill="none" stroke="#1A1A1A" stroke-miterlimit="10" width="24" height="8"/>
			<rect x="597.5" y="545.5" fill="none" stroke="#1A1A1A" stroke-miterlimit="10" width="24" height="2"/>
		</g>
		<rect x="374" y="536" fill="none" stroke="#1A1A1A" stroke-width="2" stroke-miterlimit="10" width="253" height="61"/>
		<rect x="373.5" y="597.5" fill="none" stroke="#1A1A1A" stroke-miterlimit="10" width="254" height="3"/>
		<rect x="324.5" y="263.5" opacity="0.4" fill="none" stroke="#1A1A1A" stroke-miterlimit="10" width="202" height="111"/>
		<g opacity="0.4">
			<line fill="none" stroke="#000000" stroke-miterlimit="10" x1="366.5" y1="375" x2="366.5" y2="393"/>
			<polyline fill="none" stroke="#000000" stroke-miterlimit="10" points="527,297.5 594.5,297.5 594.5,311 			"/>
			<line fill="none" stroke="#000000" stroke-miterlimit="10" x1="594.5" y1="311" x2="594.5" y2="390"/>
			<line fill="none" stroke="#000000" stroke-miterlimit="10" x1="594.5" y1="443" x2="594.5" y2="390"/>
			<polyline fill="none" stroke="#000000" stroke-miterlimit="10" points="366.5,392 366.5,458.5 594.5,458.5 594.5,443 			"/>
			<polyline fill="none" stroke="#000000" stroke-miterlimit="10" points="334.5,375 334.5,392.5 366,392.5 			"/>
			<polyline fill="none" stroke="#000000" stroke-miterlimit="10" points="527,285.4 618.5,285.5 618.5,311 			"/>
			<polyline fill="none" stroke="#000000" stroke-miterlimit="10" points="595,392.5 618.5,392.5 618.5,311 			"/>
			<polyline fill="none" stroke="#000000" stroke-miterlimit="10" points="619,312.5 656.5,312.5 656.5,444.5 595,444.5 			"/>
			<path opacity="0.4" fill="none" stroke="#000000" stroke-linecap="round" stroke-linejoin="round" d="M335,375.5"/>
		</g>
		<rect x="499.5" y="265.5" opacity="0.4" fill="none" stroke="#1A1A1A" stroke-miterlimit="10" width="7" height="7"/>
		<rect x="508.5" y="265.5" opacity="0.4" fill="none" stroke="#1A1A1A" stroke-miterlimit="10" width="7" height="7"/>
		<rect x="517.5" y="265.5" opacity="0.4" fill="none" stroke="#1A1A1A" stroke-miterlimit="10" width="7" height="7"/>
		<rect x="327.5" y="268.5" opacity="0.4" stroke="#000000" stroke-miterlimit="10" width="8" height="4"/>
		<path opacity="0.4" d="M325,275v99h201v-99H325z M331,283h6v3h-6V283z M331,289h49v3h-49V289z M331,295h28v3h-28V295z M331,301h67
			v3h-67V301z M331,307h102v3H331V307z M331,313h16v3h-16V313z M331,319h154v3H331V319z M331,325h67v3h-67V325z M331,353h84v3h-84
			V353z M449,362H331v-3h118V362z M501,350H331v-3h170V350z"/>
		<path fill="none" stroke="#1A1A1A" stroke-width="2" stroke-miterlimit="10" d="M720.5,565.8c0,15.3-9.5,19.2-22.5,19.2
			s-24.5-3.9-24.5-19.2S682,542,695,542S720.5,550.4,720.5,565.8z"/>
	</g>
	<circle id="cs_path" opacity="0" fill="none" stroke="#2EFF42" stroke-miterlimit="10" cx="512" cy="384" r="300"/>
</g>
</svg>
