<?xml version="1.0" encoding="utf-8"?>
<!-- Generator: Adobe Illustrator 18.0.0, SVG Export Plug-In . SVG Version: 6.00 Build 0)  -->
<!DOCTYPE svg PUBLIC "-//W3C//DTD SVG 1.1//EN" "http://www.w3.org/Graphics/SVG/1.1/DTD/svg11.dtd">
<svg version="1.1" id="Layer_1" xmlns="http://www.w3.org/2000/svg" xmlns:xlink="http://www.w3.org/1999/xlink" x="0px" y="0px"
	 viewBox="0 0 200 200" enable-background="new 0 0 200 200" xml:space="preserve">
<path id="logo" d="M0,175.4C0,175.4,5.8,75,99.9,4c92.9,69,99.8,172,99.8,172s-38.4,16.6-75.8,18.9c-13-25.3,5.9-60.1,39.4-57.3
	c-5.3-14.9-23.4-29.5-44.6-26.3c8.9-32.6-16.9-50.9-18.8-50.8s-27.5,18.8-18.8,50.8c-23.6-3.4-39.7,13-44.6,26
	c36.9-0.9,50.9,34.3,39.1,57.3C51.8,193,24.6,186.3,0,175.4z"/>
</svg>
